<?xml version="1.0" encoding="utf-8"?>
<!-- Generator: Adobe Illustrator 18.0.0, SVG Export Plug-In . SVG Version: 6.00 Build 0)  -->
<!DOCTYPE svg PUBLIC "-//W3C//DTD SVG 1.1//EN" "http://www.w3.org/Graphics/SVG/1.1/DTD/svg11.dtd">
<svg version="1.1" id="Слой_1" xmlns="http://www.w3.org/2000/svg" xmlns:xlink="http://www.w3.org/1999/xlink" x="0px" y="0px"
	 viewBox="0 0 30 30" enable-background="new 0 0 30 30" xml:space="preserve">
<path fill="none" stroke="#000000" stroke-width="2" stroke-linecap="round" stroke-linejoin="round" stroke-miterlimit="10" d="
	M8.6,20.7l0.7,0.7c0.8,0.8,2.1,0.8,2.8,0l9.3-9.3c0.8-0.8,0.8-2.1,0-2.8l-0.7-0.7l0,0c-0.8-0.8-2.1-0.8-2.8,0l0,0
	c-0.8,0.8-0.8,2.1,0,2.8l0,0c0,0-6.5,6.5-6.5,6.5l0,0c-0.8-0.8-2.1-0.8-2.8,0l0,0C7.8,18.7,7.8,19.9,8.6,20.7L8.6,20.7z"/>
<circle fill="none" stroke="#000000" stroke-width="2" stroke-linecap="round" stroke-linejoin="round" stroke-miterlimit="10" cx="15" cy="15" r="14"/>
</svg>
