<?xml version="1.0" encoding="utf-8"?>
<!-- Generator: Adobe Illustrator 18.0.0, SVG Export Plug-In . SVG Version: 6.00 Build 0)  -->
<!DOCTYPE svg PUBLIC "-//W3C//DTD SVG 1.1//EN" "http://www.w3.org/Graphics/SVG/1.1/DTD/svg11.dtd">
<svg version="1.1" id="Слой_1" xmlns="http://www.w3.org/2000/svg" xmlns:xlink="http://www.w3.org/1999/xlink" x="0px" y="0px"
	 viewBox="0 0 100 81" enable-background="new 0 0 100 81" xml:space="preserve">
<rect x="10" y="10" fill="#FFFFFF" width="80" height="61"/>
<rect x="10" y="10" opacity="0.1" width="80" height="2"/>
<path fill="#245F97" d="M98,10H2c-1.1,0-2-0.9-2-2V2c0-1.1,0.9-2,2-2h96c1.1,0,2,0.9,2,2v6C100,9.1,99.1,10,98,10z"/>
<circle fill="none" stroke="#245F97" stroke-width="2" stroke-miterlimit="10" cx="50" cy="78" r="2"/>
<line fill="none" stroke="#245F97" stroke-width="2" stroke-miterlimit="10" x1="50" y1="76" x2="50" y2="71"/>
<line opacity="0.1" fill="none" stroke="#000000" stroke-width="2" stroke-miterlimit="10" x1="50" y1="72" x2="50" y2="71"/>
<g>
	<rect x="47" y="48" fill="#F1C40F" width="6" height="7"/>
	<rect x="47" y="54" opacity="0.1" width="6" height="1"/>
	<rect x="47" y="48" opacity="0.1" width="6" height="3"/>
	<path fill="#F1C40F" d="M56,57H44c-0.6,0-1-0.4-1-1l0,0c0-0.6,0.4-1,1-1h12c0.6,0,1,0.4,1,1l0,0C57,56.6,56.6,57,56,57z"/>
	<g>
		<path fill="#F1C40F" d="M34,23h4v14h0c-3.3,0-6-2.7-6-6v-6C32,23.9,32.9,23,34,23z M38,35V25h-4v6C34,33.2,35.8,35,38,35L38,35z"
			/>
		<rect x="37" y="35" opacity="0.1" width="1" height="2"/>
		<rect x="37" y="23" opacity="0.1" width="1" height="2"/>
	</g>
	<path fill="#F1C40F" d="M62,37L62,37l0-14h4c1.1,0,2,0.9,2,2v6C68,34.3,65.3,37,62,37z M66,31v-6h-4v10h0C64.2,35,66,33.2,66,31z"
		/>
	<path fill="#F1C40F" d="M50,49L50,49c-6.6,0-12-5.4-12-12V23h24v14C62,43.6,56.6,49,50,49z"/>
	<rect x="62" y="35" opacity="0.1" width="1" height="2"/>
	<rect x="62" y="23" opacity="0.1" width="1" height="2"/>
</g>
</svg>
