<?xml version="1.0" encoding="UTF-8" standalone="no"?>
<!-- Generator: Adobe Illustrator 18.0.0, SVG Export Plug-In . SVG Version: 6.00 Build 0)  -->

<svg
   xmlns:dc="http://purl.org/dc/elements/1.1/"
   xmlns:cc="http://creativecommons.org/ns#"
   xmlns:rdf="http://www.w3.org/1999/02/22-rdf-syntax-ns#"
   xmlns:svg="http://www.w3.org/2000/svg"
   xmlns="http://www.w3.org/2000/svg"
   xmlns:sodipodi="http://sodipodi.sourceforge.net/DTD/sodipodi-0.dtd"
   xmlns:inkscape="http://www.inkscape.org/namespaces/inkscape"
   version="1.1"
   id="Слой_1"
   x="0px"
   y="0px"
   viewBox="0 0 100 81"
   enable-background="new 0 0 100 81"
   xml:space="preserve"
   inkscape:version="0.91 r13725"
   sodipodi:docname="presentation.svg"><metadata
     id="metadata45"><rdf:RDF><cc:Work
         rdf:about=""><dc:format>image/svg+xml</dc:format><dc:type
           rdf:resource="http://purl.org/dc/dcmitype/StillImage" /><dc:title /></cc:Work></rdf:RDF></metadata><defs
     id="defs43"><filter
       style="color-interpolation-filters:sRGB;"
       inkscape:label="Drop Shadow"
       id="filter3577"><feFlood
         flood-opacity="0.2"
         flood-color="rgb(0,0,0)"
         result="flood"
         id="feFlood3579" /><feComposite
         in="flood"
         in2="SourceGraphic"
         operator="in"
         result="composite1"
         id="feComposite3581" /><feGaussianBlur
         in="composite1"
         stdDeviation="2"
         result="blur"
         id="feGaussianBlur3583" /><feOffset
         dx="0"
         dy="0"
         result="offset"
         id="feOffset3585" /><feComposite
         in="SourceGraphic"
         in2="offset"
         operator="over"
         result="composite2"
         id="feComposite3587" /></filter></defs><sodipodi:namedview
     pagecolor="#ffffff"
     bordercolor="#666666"
     borderopacity="1"
     objecttolerance="10"
     gridtolerance="10"
     guidetolerance="10"
     inkscape:pageopacity="0"
     inkscape:pageshadow="2"
     inkscape:window-width="1798"
     inkscape:window-height="1053"
     id="namedview41"
     showgrid="false"
     inkscape:zoom="23.308642"
     inkscape:cx="51.245703"
     inkscape:cy="13.556949"
     inkscape:window-x="-9"
     inkscape:window-y="-9"
     inkscape:window-maximized="1"
     inkscape:current-layer="Слой_1" /><rect
     x="10"
     y="10"
     fill="#FFFFFF"
     width="80"
     height="61"
     id="rect3"
     style="filter:url(#filter3577)" /><rect
     x="10"
     y="10"
     opacity="0.1"
     width="80"
     height="2"
     id="rect5" /><path
     fill="#245F97"
     d="M98,10H2c-1.1,0-2-0.9-2-2V2c0-1.1,0.9-2,2-2h96c1.1,0,2,0.9,2,2v6C100,9.1,99.1,10,98,10z"
     id="path7" /><circle
     fill="none"
     stroke="#245F97"
     stroke-width="2"
     stroke-miterlimit="10"
     cx="50"
     cy="78"
     r="2"
     id="circle9" /><line
     opacity="0.1"
     fill="none"
     stroke="#000000"
     stroke-width="2"
     stroke-miterlimit="10"
     x1="50"
     y1="72"
     x2="50"
     y2="71"
     id="line13" /><line
     fill="none"
     stroke="#245F97"
     stroke-width="2"
     stroke-miterlimit="10"
     x1="50"
     y1="76"
     x2="50"
     y2="71"
     id="line11" /><g
     id="g15"><rect
       x="47"
       y="48"
       fill="#F1C40F"
       width="6"
       height="7"
       id="rect17" /><rect
       x="47"
       y="54"
       opacity="0.1"
       width="6"
       height="1"
       id="rect19" /><rect
       x="47"
       y="48"
       opacity="0.1"
       width="6"
       height="3"
       id="rect21" /><path
       fill="#F1C40F"
       d="M56,57H44c-0.6,0-1-0.4-1-1l0,0c0-0.6,0.4-1,1-1h12c0.6,0,1,0.4,1,1l0,0C57,56.6,56.6,57,56,57z"
       id="path23" /><g
       id="g25"><path
         fill="#F1C40F"
         d="M34,23h4v14h0c-3.3,0-6-2.7-6-6v-6C32,23.9,32.9,23,34,23z M38,35V25h-4v6C34,33.2,35.8,35,38,35L38,35z"
         id="path27" /><rect
         x="37"
         y="35"
         opacity="0.1"
         width="1"
         height="2"
         id="rect29" /><rect
         x="37"
         y="23"
         opacity="0.1"
         width="1"
         height="2"
         id="rect31" /></g><path
       fill="#F1C40F"
       d="M62,37L62,37l0-14h4c1.1,0,2,0.9,2,2v6C68,34.3,65.3,37,62,37z M66,31v-6h-4v10h0C64.2,35,66,33.2,66,31z"
       id="path33" /><path
       fill="#F1C40F"
       d="M50,49L50,49c-6.6,0-12-5.4-12-12V23h24v14C62,43.6,56.6,49,50,49z"
       id="path35" /><rect
       x="62"
       y="35"
       opacity="0.1"
       width="1"
       height="2"
       id="rect37" /><rect
       x="62"
       y="23"
       opacity="0.1"
       width="1"
       height="2"
       id="rect39" /></g></svg>