<?xml version="1.0" encoding="utf-8"?>
<!DOCTYPE svg PUBLIC "-//W3C//DTD SVG 1.1//EN" "http://www.w3.org/Graphics/SVG/1.1/DTD/svg11.dtd">
<svg version="1.1" id="Слой_1" xmlns="http://www.w3.org/2000/svg" xmlns:xlink="http://www.w3.org/1999/xlink" x="0px" y="0px"
	 viewBox="0 0 100 80" enable-background="new 0 0 100 80" xml:space="preserve">
<path fill="#FFFFFF" d="M98,80H2c-1.1,0-2-0.9-2-2V2c0-1.1,0.9-2,2-2h96c1.1,0,2,0.9,2,2v76C100,79.1,99.1,80,98,80z"/>
<path fill="#245F97" d="M100,8H0V2c0-1.1,0.9-2,2-2l96,0c1.1,0,2,0.9,2,2V8z"/>
<path fill="#C62846" d="M97,6h-2c-0.6,0-1-0.4-1-1V3c0-0.6,0.4-1,1-1h2c0.6,0,1,0.4,1,1v2C98,5.6,97.6,6,97,6z"/>
<path fill="none" stroke="#245F97" stroke-width="2" stroke-miterlimit="10" d="M88,55H12c-1.1,0-2-0.9-2-2v-6c0-1.1,0.9-2,2-2h76
	c1.1,0,2,0.9,2,2v6C90,54.1,89.1,55,88,55z"/>
<g>
	<path fill="#4394D0" d="M42.9,24.7"/>
	<path fill="#4394D0" d="M57.2,24.7"/>
	<polygon fill="#004A8E" points="50,28.8 42.9,24.7 42.9,32.9 50,37 57.2,32.9 57.2,24.7 	"/>
	<g>
		<path fill="#ACD6F2" d="M46.6,22.5v-2.7c0,0,0,0,0,0c0,0,0,0,0,0c0-1.3-1.6-2.5-3.7-2.8v-2l7.1,4.1l7.1-4.1v2
			c-2.2,0.3-3.8,1.5-3.8,2.8c0,0,0,0,0,0c0,0,0,0,0,0v2.7L50,20.5L46.6,22.5z"/>
		<g>
			<path fill="#4394D0" d="M41.6,22.7c-2.8,0-5-1.3-5-2.9v8.2c0,1.6,2.3,2.9,5,2.9c0.5,0,0.9,0,1.3-0.1v-6.2l3.7-2.1v-2.7
				C46.6,21.4,44.3,22.7,41.6,22.7z"/>
			<path fill="#4394D0" d="M58.4,22.7c-2.8,0-5-1.3-5-2.9v2.7l3.8,2.2v6.2c0.4,0.1,0.8,0.1,1.3,0.1c2.8,0,5-1.3,5-2.9v-8.2
				C63.5,21.4,61.2,22.7,58.4,22.7z"/>
		</g>
	</g>
</g>
</svg>
