<?xml version="1.0" encoding="utf-8"?>
<!-- Generator: Adobe Illustrator 18.0.0, SVG Export Plug-In . SVG Version: 6.00 Build 0)  -->
<!DOCTYPE svg PUBLIC "-//W3C//DTD SVG 1.1//EN" "http://www.w3.org/Graphics/SVG/1.1/DTD/svg11.dtd">
<svg version="1.1" id="Слой_1" xmlns="http://www.w3.org/2000/svg" xmlns:xlink="http://www.w3.org/1999/xlink" x="0px" y="0px"
	 viewBox="0 0 100 80" enable-background="new 0 0 100 80" xml:space="preserve">
<path fill="#FFFFFF" d="M98,80H2c-1.1,0-2-0.9-2-2V2c0-1.1,0.9-2,2-2h96c1.1,0,2,0.9,2,2v76C100,79.1,99.1,80,98,80z"/>
<path fill="#99283A" d="M60,59H40c-5.5,0-10-4.5-10-10V39c0-5.5,4.5-10,10-10h20c5.5,0,10,4.5,10,10v10C70,54.5,65.5,59,60,59z"/>
<polygon fill="#FFFFFF" points="45,49 45,39 55,44 "/>
<path fill="#245F97" d="M100,8H0V2c0-1.1,0.9-2,2-2l96,0c1.1,0,2,0.9,2,2V8z"/>
<path fill="#C62846" d="M97,6h-2c-0.6,0-1-0.4-1-1V3c0-0.6,0.4-1,1-1h2c0.6,0,1,0.4,1,1v2C98,5.6,97.6,6,97,6z"/>
</svg>
