<?xml version="1.0" encoding="UTF-8" standalone="no"?>
<!-- Generator: Adobe Illustrator 18.0.0, SVG Export Plug-In . SVG Version: 6.00 Build 0)  -->

<svg
   xmlns:dc="http://purl.org/dc/elements/1.1/"
   xmlns:cc="http://creativecommons.org/ns#"
   xmlns:rdf="http://www.w3.org/1999/02/22-rdf-syntax-ns#"
   xmlns:svg="http://www.w3.org/2000/svg"
   xmlns="http://www.w3.org/2000/svg"
   xmlns:sodipodi="http://sodipodi.sourceforge.net/DTD/sodipodi-0.dtd"
   xmlns:inkscape="http://www.inkscape.org/namespaces/inkscape"
   version="1.1"
   id="Слой_1"
   x="0px"
   y="0px"
   viewBox="0 0 120 96"
   enable-background="new 0 0 100 80"
   xml:space="preserve"
   inkscape:version="0.91 r13725"
   sodipodi:docname="video.svg"
   width="120"
   height="96"><metadata
     id="metadata17"><rdf:RDF><cc:Work
         rdf:about=""><dc:format>image/svg+xml</dc:format><dc:type
           rdf:resource="http://purl.org/dc/dcmitype/StillImage" /><dc:title></dc:title></cc:Work></rdf:RDF></metadata><defs
     id="defs15"><filter
       style="color-interpolation-filters:sRGB"
       inkscape:label="Drop Shadow"
       id="filter4637"><feFlood
         flood-opacity="0.2"
         flood-color="rgb(0,0,0)"
         result="flood"
         id="feFlood4639" /><feComposite
         in="flood"
         in2="SourceGraphic"
         operator="in"
         result="composite1"
         id="feComposite4641" /><feGaussianBlur
         in="composite1"
         stdDeviation="3"
         result="blur"
         id="feGaussianBlur4643" /><feOffset
         dx="0"
         dy="1"
         result="offset"
         id="feOffset4645" /><feComposite
         in="SourceGraphic"
         in2="offset"
         operator="over"
         result="composite2"
         id="feComposite4647" /></filter></defs><sodipodi:namedview
     pagecolor="#ffffff"
     bordercolor="#666666"
     borderopacity="1"
     objecttolerance="10"
     gridtolerance="10"
     guidetolerance="10"
     inkscape:pageopacity="0"
     inkscape:pageshadow="2"
     inkscape:window-width="1614"
     inkscape:window-height="859"
     id="namedview13"
     showgrid="false"
     inkscape:zoom="2.95"
     inkscape:cx="90"
     inkscape:cy="72"
     inkscape:window-x="0"
     inkscape:window-y="0"
     inkscape:window-maximized="0"
     inkscape:current-layer="Слой_1"
     fit-margin-top="0"
     fit-margin-left="0"
     fit-margin-right="0"
     fit-margin-bottom="0" /><path
     d="m 108,88 -96,0 c -1.1,0 -2,-0.9 -2,-2 l 0,-76 c 0,-1.1 0.9,-2 2,-2 l 96,0 c 1.1,0 2,0.9 2,2 l 0,76 c 0,1.1 -0.9,2 -2,2 z"
     id="path3"
     style="fill:#ffffff;filter:url(#filter4637)"
     inkscape:connector-curvature="0" /><path
     d="M 70,67 50,67 C 44.5,67 40,62.5 40,57 l 0,-10 c 0,-5.5 4.5,-10 10,-10 l 20,0 c 5.5,0 10,4.5 10,10 l 0,10 c 0,5.5 -4.5,10 -10,10 z"
     id="path5"
     inkscape:connector-curvature="0"
     style="fill:#99283a" /><polygon
     points="45,49 45,39 55,44 "
     id="polygon7"
     style="fill:#ffffff"
     transform="translate(10,8)" /><path
     d="m 110,16 -100,0 0,-6 c 0,-1.1 0.9,-2 2,-2 l 96,0 c 1.1,0 2,0.9 2,2 l 0,6 z"
     id="path9"
     inkscape:connector-curvature="0"
     style="fill:#245f97" /><path
     d="m 107,14 -2,0 c -0.6,0 -1,-0.4 -1,-1 l 0,-2 c 0,-0.6 0.4,-1 1,-1 l 2,0 c 0.6,0 1,0.4 1,1 l 0,2 c 0,0.6 -0.4,1 -1,1 z"
     id="path11"
     inkscape:connector-curvature="0"
     style="fill:#c62846" /></svg>